<svg xmlns="http://www.w3.org/2000/svg" width="139" height="45" viewBox="0 0 139 45">
  <g fill="none" fill-rule="evenodd">
    <polygon fill="#E50F0F" points="4.016 28.055 18.621 36.029 11.782 15.912"/>
    <path fill="#E50F0F" d="M22.008 44.063C24.816 44.063 27.497 43.53 29.964 42.569L2.017 31.161C5.463 38.768 13.115 44.063 22.008 44.063L22.008 44.063zM9.395 9.043C8.839 7.235 10.044 7.095 10.044 7.095 11.819 6.652 11.992 8.301 11.992 8.301L12.848 11.74 21.419.193C9.574.506.065 10.199.065 22.12.065 24.126.339 26.067.844 27.912L11.135 14.049 9.395 9.043 9.395 9.043zM43.95 22.12C43.95 10.002 34.126.178 22.008.178 21.953.178 21.898.182 21.842.182L13.298 13.542 19.222 36.383 30.346 42.416C38.328 39.135 43.95 31.285 43.95 22.12L43.95 22.12z"/>
    <polygon fill="#111" fill-rule="nonzero" points="50.788 27.285 57.542 27.285 57.542 29.744 47.95 29.744 47.95 16.162 50.788 16.162"/>
    <polygon fill="#111" fill-rule="nonzero" points="72.859 29.744 70.021 29.744 70.021 18.564 65.916 18.564 65.916 16.162 76.964 16.162 76.964 18.564 72.859 18.564"/>
    <polygon fill="#111" fill-rule="nonzero" points="114.004 29.744 111.166 29.744 111.166 16.162 114.004 16.162"/>
    <path fill="#111" fill-rule="nonzero" d="M127.601,16.162 L134.468,16.162 C138.081,16.162 138.743,18.83 138.743,20.002 C138.743,21.496 137.986,22.783 136.643,23.236 C137.759,23.728 138.365,24.144 138.365,26.679 C138.365,28.665 138.365,29.158 138.97,29.384 L138.97,29.743 L135.829,29.743 C135.64,29.1 135.526,28.401 135.526,27.001 C135.526,25.147 135.413,24.429 133.313,24.429 L130.38,24.429 L130.38,29.743 L127.599,29.743 L127.599,16.162 L127.601,16.162 Z M133.711,22.141 C135.187,22.141 135.905,21.629 135.905,20.286 C135.905,19.567 135.584,18.509 133.92,18.509 L130.382,18.509 L130.382,22.142 L133.711,22.142 L133.711,22.141 Z"/>
    <path fill="#FFF" fill-rule="nonzero" d="M24.104,28.082 L28.238,16.162 L28.256,16.162 L26.56,28.588 C26.56,28.588 26.541,30.115 24.918,29.744 C24.917,29.744 23.593,29.613 24.104,28.082 L24.104,28.082 Z"/>
    <polygon fill="#FFF" fill-rule="nonzero" points="32.151 24.6 28.958 24.6 28.045 26.945 32.945 26.945 33.815 29.744 36.899 29.744 32.174 16.336 30.727 20.055"/>
    <path fill="#E50F0F" fill-rule="nonzero" d="M87.539,28.082 L91.673,16.162 L91.692,16.162 L89.995,28.588 C89.995,28.588 89.976,30.115 88.354,29.744 C88.354,29.744 87.028,29.613 87.539,28.082 L87.539,28.082 Z"/>
    <polygon fill="#111" fill-rule="nonzero" points="95.586 24.6 92.394 24.6 91.48 26.945 96.381 26.945 97.251 29.744 100.335 29.744 95.609 16.336 94.162 20.055"/>
  </g>
</svg>
