<svg xmlns="http://www.w3.org/2000/svg" width="45" height="44" viewBox="0 0 45 44">
  <g fill="#E50F0F" fill-rule="evenodd">
    <polygon points="4.375 27.961 18.98 35.935 12.141 15.818"/>
    <path d="M22.367375 43.96925C25.175375 43.96925 27.856375 43.43625 30.323375 42.47525L2.376375 31.06725C5.822375 38.67425 13.474375 43.96925 22.367375 43.96925L22.367375 43.96925zM9.754375 8.94925C9.198375 7.14125 10.403375 7.00125 10.403375 7.00125 12.178375 6.55825 12.351375 8.20725 12.351375 8.20725L13.207375 11.64625 21.778375.09925C9.933375.41225.424375 10.10525.424375 22.02625.424375 24.03225.698375 25.97325 1.203375 27.81825L11.494375 13.95525 9.754375 8.94925 9.754375 8.94925zM44.309375 22.02625C44.309375 9.90825 34.485375.08425 22.367375.08425 22.312375.08425 22.257375.08825 22.201375.08825L13.657375 13.44825 19.581375 36.28925 30.705375 42.32225C38.687375 39.04125 44.309375 31.19125 44.309375 22.02625L44.309375 22.02625z"/>
  </g>
</svg>
